<mxfile host="app.diagrams.net" modified="2023-05-18T11:48:33.264Z" agent="Mozilla/5.0 (Windows NT 10.0; Win64; x64) AppleWebKit/537.36 (KHTML, like Gecko) Chrome/113.0.0.0 Safari/537.36" etag="M-8hpl9oUt2IPs8NbwyA" version="21.2.1" type="device" pages="2">
  <diagram name="Page-1" id="ge80NNoV6PoxIQlX4A45">
    <mxGraphModel dx="1972" dy="748" grid="1" gridSize="10" guides="1" tooltips="1" connect="1" arrows="1" fold="1" page="1" pageScale="1" pageWidth="850" pageHeight="1100" math="0" shadow="0">
      <root>
        <mxCell id="0" />
        <mxCell id="1" parent="0" />
        <mxCell id="FidjuhQmROle2Qf061Uu-1" value="Animal" style="whiteSpace=wrap;html=1;align=center;" parent="1" vertex="1">
          <mxGeometry x="250" y="400" width="100" height="40" as="geometry" />
        </mxCell>
        <mxCell id="FidjuhQmROle2Qf061Uu-16" style="edgeStyle=none;shape=connector;rounded=0;orthogonalLoop=1;jettySize=auto;html=1;entryX=0.367;entryY=0.029;entryDx=0;entryDy=0;labelBackgroundColor=default;strokeColor=default;fontFamily=Helvetica;fontSize=11;fontColor=default;endArrow=none;entryPerimeter=0;" parent="1" source="FidjuhQmROle2Qf061Uu-3" target="FidjuhQmROle2Qf061Uu-1" edge="1">
          <mxGeometry relative="1" as="geometry" />
        </mxCell>
        <mxCell id="FidjuhQmROle2Qf061Uu-3" value="raça" style="ellipse;whiteSpace=wrap;html=1;align=center;" parent="1" vertex="1">
          <mxGeometry x="140" y="314" width="60" height="30" as="geometry" />
        </mxCell>
        <mxCell id="FidjuhQmROle2Qf061Uu-17" style="edgeStyle=none;shape=connector;rounded=0;orthogonalLoop=1;jettySize=auto;html=1;entryX=0.5;entryY=0;entryDx=0;entryDy=0;labelBackgroundColor=default;strokeColor=default;fontFamily=Helvetica;fontSize=11;fontColor=default;endArrow=none;" parent="1" source="FidjuhQmROle2Qf061Uu-4" target="FidjuhQmROle2Qf061Uu-1" edge="1">
          <mxGeometry relative="1" as="geometry" />
        </mxCell>
        <mxCell id="FidjuhQmROle2Qf061Uu-4" value="data de nascimento" style="ellipse;whiteSpace=wrap;html=1;align=center;" parent="1" vertex="1">
          <mxGeometry x="209" y="300" width="90" height="40" as="geometry" />
        </mxCell>
        <mxCell id="FidjuhQmROle2Qf061Uu-18" style="edgeStyle=none;shape=connector;rounded=0;orthogonalLoop=1;jettySize=auto;html=1;labelBackgroundColor=default;strokeColor=default;fontFamily=Helvetica;fontSize=11;fontColor=default;endArrow=none;" parent="1" source="FidjuhQmROle2Qf061Uu-5" edge="1">
          <mxGeometry relative="1" as="geometry">
            <mxPoint x="310" y="400" as="targetPoint" />
          </mxGeometry>
        </mxCell>
        <mxCell id="FidjuhQmROle2Qf061Uu-5" value="nome do animal" style="ellipse;whiteSpace=wrap;html=1;align=center;" parent="1" vertex="1">
          <mxGeometry x="262" y="260" width="100" height="40" as="geometry" />
        </mxCell>
        <mxCell id="FidjuhQmROle2Qf061Uu-19" style="edgeStyle=none;shape=connector;rounded=0;orthogonalLoop=1;jettySize=auto;html=1;entryX=0.75;entryY=0;entryDx=0;entryDy=0;labelBackgroundColor=default;strokeColor=default;fontFamily=Helvetica;fontSize=11;fontColor=default;endArrow=none;" parent="1" source="FidjuhQmROle2Qf061Uu-6" target="FidjuhQmROle2Qf061Uu-1" edge="1">
          <mxGeometry relative="1" as="geometry" />
        </mxCell>
        <mxCell id="FidjuhQmROle2Qf061Uu-6" value="género" style="ellipse;whiteSpace=wrap;html=1;align=center;" parent="1" vertex="1">
          <mxGeometry x="370" y="274" width="75" height="40" as="geometry" />
        </mxCell>
        <mxCell id="FidjuhQmROle2Qf061Uu-20" style="edgeStyle=none;shape=connector;rounded=0;orthogonalLoop=1;jettySize=auto;html=1;entryX=1;entryY=0;entryDx=0;entryDy=0;labelBackgroundColor=default;strokeColor=default;fontFamily=Helvetica;fontSize=11;fontColor=default;endArrow=none;" parent="1" source="FidjuhQmROle2Qf061Uu-12" target="FidjuhQmROle2Qf061Uu-1" edge="1">
          <mxGeometry relative="1" as="geometry" />
        </mxCell>
        <mxCell id="FidjuhQmROle2Qf061Uu-12" value="número de paciente" style="ellipse;whiteSpace=wrap;html=1;align=center;fontStyle=4;" parent="1" vertex="1">
          <mxGeometry x="390" y="320" width="100" height="40" as="geometry" />
        </mxCell>
        <mxCell id="FidjuhQmROle2Qf061Uu-15" style="edgeStyle=none;shape=connector;rounded=0;orthogonalLoop=1;jettySize=auto;html=1;entryX=0.133;entryY=-0.033;entryDx=0;entryDy=0;labelBackgroundColor=default;strokeColor=default;fontFamily=Helvetica;fontSize=11;fontColor=default;endArrow=none;entryPerimeter=0;" parent="1" source="FidjuhQmROle2Qf061Uu-13" target="FidjuhQmROle2Qf061Uu-1" edge="1">
          <mxGeometry relative="1" as="geometry" />
        </mxCell>
        <mxCell id="FidjuhQmROle2Qf061Uu-13" value="espécie" style="ellipse;whiteSpace=wrap;html=1;align=center;" parent="1" vertex="1">
          <mxGeometry x="150" y="355" width="70" height="30" as="geometry" />
        </mxCell>
        <mxCell id="FidjuhQmROle2Qf061Uu-45" style="edgeStyle=none;shape=connector;rounded=0;orthogonalLoop=1;jettySize=auto;html=1;entryX=0;entryY=0.5;entryDx=0;entryDy=0;labelBackgroundColor=default;strokeColor=default;fontFamily=Helvetica;fontSize=11;fontColor=default;endArrow=none;exitX=1;exitY=0.5;exitDx=0;exitDy=0;" parent="1" source="FidjuhQmROle2Qf061Uu-37" target="FidjuhQmROle2Qf061Uu-44" edge="1">
          <mxGeometry relative="1" as="geometry">
            <mxPoint x="57" y="700" as="targetPoint" />
          </mxGeometry>
        </mxCell>
        <mxCell id="FidjuhQmROle2Qf061Uu-52" value="" style="edgeStyle=none;shape=connector;rounded=0;orthogonalLoop=1;jettySize=auto;html=1;labelBackgroundColor=default;strokeColor=default;fontFamily=Helvetica;fontSize=11;fontColor=default;endArrow=none;" parent="1" source="FidjuhQmROle2Qf061Uu-37" target="FidjuhQmROle2Qf061Uu-48" edge="1">
          <mxGeometry relative="1" as="geometry" />
        </mxCell>
        <mxCell id="FidjuhQmROle2Qf061Uu-37" value="Dono" style="whiteSpace=wrap;html=1;align=center;fontFamily=Helvetica;fontSize=11;fontColor=default;" parent="1" vertex="1">
          <mxGeometry x="-61" y="680" width="100" height="40" as="geometry" />
        </mxCell>
        <mxCell id="FidjuhQmROle2Qf061Uu-44" value="Número Identificação do CC" style="ellipse;whiteSpace=wrap;html=1;align=center;fontStyle=4;fontFamily=Helvetica;fontSize=11;fontColor=default;" parent="1" vertex="1">
          <mxGeometry x="80" y="650" width="90" height="50" as="geometry" />
        </mxCell>
        <mxCell id="FidjuhQmROle2Qf061Uu-50" style="edgeStyle=none;shape=connector;rounded=0;orthogonalLoop=1;jettySize=auto;html=1;entryX=0.75;entryY=1;entryDx=0;entryDy=0;labelBackgroundColor=default;strokeColor=default;fontFamily=Helvetica;fontSize=11;fontColor=default;endArrow=none;" parent="1" source="FidjuhQmROle2Qf061Uu-46" target="FidjuhQmROle2Qf061Uu-37" edge="1">
          <mxGeometry relative="1" as="geometry" />
        </mxCell>
        <mxCell id="FidjuhQmROle2Qf061Uu-46" value="Morada" style="ellipse;whiteSpace=wrap;html=1;align=center;fontFamily=Helvetica;fontSize=11;fontColor=default;" parent="1" vertex="1">
          <mxGeometry x="9" y="748" width="100" height="40" as="geometry" />
        </mxCell>
        <mxCell id="FidjuhQmROle2Qf061Uu-49" style="edgeStyle=none;shape=connector;rounded=0;orthogonalLoop=1;jettySize=auto;html=1;entryX=0.25;entryY=1;entryDx=0;entryDy=0;labelBackgroundColor=default;strokeColor=default;fontFamily=Helvetica;fontSize=11;fontColor=default;endArrow=none;" parent="1" source="FidjuhQmROle2Qf061Uu-47" target="FidjuhQmROle2Qf061Uu-37" edge="1">
          <mxGeometry relative="1" as="geometry" />
        </mxCell>
        <mxCell id="FidjuhQmROle2Qf061Uu-47" value="Contato" style="ellipse;whiteSpace=wrap;html=1;align=center;fontFamily=Helvetica;fontSize=11;fontColor=default;" parent="1" vertex="1">
          <mxGeometry x="-121" y="748" width="100" height="40" as="geometry" />
        </mxCell>
        <mxCell id="FidjuhQmROle2Qf061Uu-51" style="edgeStyle=none;shape=connector;rounded=0;orthogonalLoop=1;jettySize=auto;html=1;labelBackgroundColor=default;strokeColor=default;fontFamily=Helvetica;fontSize=11;fontColor=default;endArrow=none;entryX=0;entryY=0.5;entryDx=0;entryDy=0;" parent="1" source="FidjuhQmROle2Qf061Uu-48" target="FidjuhQmROle2Qf061Uu-37" edge="1">
          <mxGeometry relative="1" as="geometry">
            <mxPoint x="-61" y="700" as="targetPoint" />
          </mxGeometry>
        </mxCell>
        <mxCell id="FidjuhQmROle2Qf061Uu-48" value="Nome" style="ellipse;whiteSpace=wrap;html=1;align=center;fontFamily=Helvetica;fontSize=11;fontColor=default;" parent="1" vertex="1">
          <mxGeometry x="-181" y="680" width="100" height="40" as="geometry" />
        </mxCell>
        <mxCell id="FidjuhQmROle2Qf061Uu-55" style="edgeStyle=none;shape=connector;rounded=0;orthogonalLoop=1;jettySize=auto;html=1;labelBackgroundColor=default;strokeColor=default;fontFamily=Helvetica;fontSize=11;fontColor=default;endArrow=none;entryX=0;entryY=0.25;entryDx=0;entryDy=0;" parent="1" source="FidjuhQmROle2Qf061Uu-54" target="FidjuhQmROle2Qf061Uu-64" edge="1">
          <mxGeometry relative="1" as="geometry">
            <mxPoint x="-63" y="408" as="targetPoint" />
          </mxGeometry>
        </mxCell>
        <mxCell id="FidjuhQmROle2Qf061Uu-54" value="número de paciente" style="ellipse;whiteSpace=wrap;html=1;align=center;fontStyle=4;fontFamily=Helvetica;fontSize=11;fontColor=default;" parent="1" vertex="1">
          <mxGeometry x="-155" y="344" width="80" height="50" as="geometry" />
        </mxCell>
        <mxCell id="FidjuhQmROle2Qf061Uu-63" style="edgeStyle=none;shape=connector;rounded=0;orthogonalLoop=1;jettySize=auto;html=1;entryX=0.5;entryY=0;entryDx=0;entryDy=0;labelBackgroundColor=default;strokeColor=default;fontFamily=Helvetica;fontSize=11;fontColor=default;endArrow=none;" parent="1" source="FidjuhQmROle2Qf061Uu-62" edge="1">
          <mxGeometry relative="1" as="geometry">
            <mxPoint x="-11" y="400" as="targetPoint" />
          </mxGeometry>
        </mxCell>
        <mxCell id="FidjuhQmROle2Qf061Uu-62" value="registos médicos" style="ellipse;whiteSpace=wrap;html=1;align=center;fontFamily=Helvetica;fontSize=11;fontColor=default;" parent="1" vertex="1">
          <mxGeometry x="-61" y="330" width="100" height="40" as="geometry" />
        </mxCell>
        <mxCell id="FidjuhQmROle2Qf061Uu-64" value="Ficha Clínica" style="shape=ext;margin=3;double=1;whiteSpace=wrap;html=1;align=center;fontFamily=Helvetica;fontSize=11;fontColor=default;" parent="1" vertex="1">
          <mxGeometry x="-61" y="400" width="100" height="40" as="geometry" />
        </mxCell>
        <mxCell id="FidjuhQmROle2Qf061Uu-67" style="edgeStyle=none;shape=connector;rounded=0;orthogonalLoop=1;jettySize=auto;html=1;entryX=0;entryY=1;entryDx=0;entryDy=0;labelBackgroundColor=default;strokeColor=default;fontFamily=Helvetica;fontSize=11;fontColor=default;endArrow=none;" parent="1" source="FidjuhQmROle2Qf061Uu-66" target="FidjuhQmROle2Qf061Uu-64" edge="1">
          <mxGeometry relative="1" as="geometry" />
        </mxCell>
        <mxCell id="FidjuhQmROle2Qf061Uu-66" value="Número Identificação do CC" style="ellipse;whiteSpace=wrap;html=1;align=center;fontFamily=Helvetica;fontSize=11;fontColor=default;" parent="1" vertex="1">
          <mxGeometry x="-161" y="419" width="80" height="50" as="geometry" />
        </mxCell>
        <mxCell id="IPbYQr8HQ4EOVnetabS6-1" value="Médico Veterinário" style="whiteSpace=wrap;html=1;align=center;" parent="1" vertex="1">
          <mxGeometry x="445" y="580" width="100" height="40" as="geometry" />
        </mxCell>
        <mxCell id="IPbYQr8HQ4EOVnetabS6-5" style="edgeStyle=none;shape=connector;rounded=0;orthogonalLoop=1;jettySize=auto;html=1;entryX=1;entryY=0.75;entryDx=0;entryDy=0;labelBackgroundColor=default;strokeColor=default;fontFamily=Helvetica;fontSize=11;fontColor=default;endArrow=none;" parent="1" source="IPbYQr8HQ4EOVnetabS6-3" target="IPbYQr8HQ4EOVnetabS6-1" edge="1">
          <mxGeometry relative="1" as="geometry" />
        </mxCell>
        <mxCell id="IPbYQr8HQ4EOVnetabS6-3" value="Número de Identicação Profissional&lt;span id=&quot;docs-internal-guid-40db5696-7fff-3339-e0db-c675312fc604&quot;&gt;&lt;/span&gt;" style="ellipse;whiteSpace=wrap;html=1;align=center;fontStyle=4;" parent="1" vertex="1">
          <mxGeometry x="542" y="650" width="150" height="50" as="geometry" />
        </mxCell>
        <mxCell id="IPbYQr8HQ4EOVnetabS6-12" style="edgeStyle=none;shape=connector;rounded=0;orthogonalLoop=1;jettySize=auto;html=1;entryX=1;entryY=0.5;entryDx=0;entryDy=0;labelBackgroundColor=default;strokeColor=default;fontFamily=Helvetica;fontSize=11;fontColor=default;endArrow=none;" parent="1" source="IPbYQr8HQ4EOVnetabS6-6" target="IPbYQr8HQ4EOVnetabS6-1" edge="1">
          <mxGeometry relative="1" as="geometry" />
        </mxCell>
        <mxCell id="IPbYQr8HQ4EOVnetabS6-6" value="Nome" style="ellipse;whiteSpace=wrap;html=1;align=center;fontFamily=Helvetica;fontSize=11;fontColor=default;" parent="1" vertex="1">
          <mxGeometry x="592" y="590" width="100" height="40" as="geometry" />
        </mxCell>
        <mxCell id="IPbYQr8HQ4EOVnetabS6-15" style="edgeStyle=none;shape=connector;rounded=0;orthogonalLoop=1;jettySize=auto;html=1;entryX=0.113;entryY=0.008;entryDx=0;entryDy=0;labelBackgroundColor=default;strokeColor=default;fontFamily=Helvetica;fontSize=11;fontColor=default;endArrow=none;entryPerimeter=0;" parent="1" source="IPbYQr8HQ4EOVnetabS6-8" target="IPbYQr8HQ4EOVnetabS6-1" edge="1">
          <mxGeometry relative="1" as="geometry" />
        </mxCell>
        <mxCell id="IPbYQr8HQ4EOVnetabS6-8" value="Morada" style="ellipse;whiteSpace=wrap;html=1;align=center;fontFamily=Helvetica;fontSize=11;fontColor=default;" parent="1" vertex="1">
          <mxGeometry x="374.5" y="510" width="66" height="40" as="geometry" />
        </mxCell>
        <mxCell id="IPbYQr8HQ4EOVnetabS6-14" style="edgeStyle=none;shape=connector;rounded=0;orthogonalLoop=1;jettySize=auto;html=1;labelBackgroundColor=default;strokeColor=default;fontFamily=Helvetica;fontSize=11;fontColor=default;endArrow=none;exitX=0.5;exitY=1;exitDx=0;exitDy=0;" parent="1" source="IPbYQr8HQ4EOVnetabS6-9" edge="1">
          <mxGeometry relative="1" as="geometry">
            <mxPoint x="476" y="580" as="targetPoint" />
          </mxGeometry>
        </mxCell>
        <mxCell id="IPbYQr8HQ4EOVnetabS6-9" value="email" style="ellipse;whiteSpace=wrap;html=1;align=center;fontFamily=Helvetica;fontSize=11;fontColor=default;" parent="1" vertex="1">
          <mxGeometry x="440.5" y="495" width="70" height="40" as="geometry" />
        </mxCell>
        <mxCell id="IPbYQr8HQ4EOVnetabS6-13" style="edgeStyle=none;shape=connector;rounded=0;orthogonalLoop=1;jettySize=auto;html=1;entryX=1;entryY=0;entryDx=0;entryDy=0;labelBackgroundColor=default;strokeColor=default;fontFamily=Helvetica;fontSize=11;fontColor=default;endArrow=none;" parent="1" source="IPbYQr8HQ4EOVnetabS6-10" target="IPbYQr8HQ4EOVnetabS6-1" edge="1">
          <mxGeometry relative="1" as="geometry" />
        </mxCell>
        <mxCell id="IPbYQr8HQ4EOVnetabS6-10" value="Contato" style="ellipse;whiteSpace=wrap;html=1;align=center;fontFamily=Helvetica;fontSize=11;fontColor=default;" parent="1" vertex="1">
          <mxGeometry x="582.5" y="540" width="100" height="40" as="geometry" />
        </mxCell>
        <mxCell id="YAYYjtM5hfzbb1nTp-d6-2" style="rounded=0;orthogonalLoop=1;jettySize=auto;html=1;endArrow=none;endFill=0;shape=link;" edge="1" parent="1" source="IPbYQr8HQ4EOVnetabS6-17">
          <mxGeometry relative="1" as="geometry">
            <mxPoint x="500" y="831" as="targetPoint" />
          </mxGeometry>
        </mxCell>
        <mxCell id="IPbYQr8HQ4EOVnetabS6-17" value="Consulta" style="whiteSpace=wrap;html=1;align=center;fontFamily=Helvetica;fontSize=11;fontColor=default;" parent="1" vertex="1">
          <mxGeometry x="309" y="810" width="100" height="40" as="geometry" />
        </mxCell>
        <mxCell id="IPbYQr8HQ4EOVnetabS6-19" style="edgeStyle=none;shape=connector;rounded=0;orthogonalLoop=1;jettySize=auto;html=1;labelBackgroundColor=default;strokeColor=default;fontFamily=Helvetica;fontSize=11;fontColor=default;endArrow=none;" parent="1" source="IPbYQr8HQ4EOVnetabS6-18" target="IPbYQr8HQ4EOVnetabS6-17" edge="1">
          <mxGeometry relative="1" as="geometry" />
        </mxCell>
        <mxCell id="IPbYQr8HQ4EOVnetabS6-18" value="data e hora" style="ellipse;whiteSpace=wrap;html=1;align=center;fontFamily=Helvetica;fontSize=11;fontColor=default;" parent="1" vertex="1">
          <mxGeometry x="180" y="840" width="100" height="40" as="geometry" />
        </mxCell>
        <mxCell id="IPbYQr8HQ4EOVnetabS6-21" style="edgeStyle=none;shape=connector;rounded=0;orthogonalLoop=1;jettySize=auto;html=1;labelBackgroundColor=default;strokeColor=default;fontFamily=Helvetica;fontSize=11;fontColor=default;endArrow=none;" parent="1" source="IPbYQr8HQ4EOVnetabS6-20" target="IPbYQr8HQ4EOVnetabS6-17" edge="1">
          <mxGeometry relative="1" as="geometry" />
        </mxCell>
        <mxCell id="IPbYQr8HQ4EOVnetabS6-20" value="número de Identicação Profissional" style="ellipse;whiteSpace=wrap;html=1;align=center;fontFamily=Helvetica;fontSize=11;fontColor=default;" parent="1" vertex="1">
          <mxGeometry x="269.5" y="890" width="105" height="43" as="geometry" />
        </mxCell>
        <mxCell id="IPbYQr8HQ4EOVnetabS6-23" style="edgeStyle=none;shape=connector;rounded=0;orthogonalLoop=1;jettySize=auto;html=1;entryX=0;entryY=0.5;entryDx=0;entryDy=0;labelBackgroundColor=default;strokeColor=default;fontFamily=Helvetica;fontSize=11;fontColor=default;endArrow=none;" parent="1" source="IPbYQr8HQ4EOVnetabS6-22" target="IPbYQr8HQ4EOVnetabS6-17" edge="1">
          <mxGeometry relative="1" as="geometry" />
        </mxCell>
        <mxCell id="IPbYQr8HQ4EOVnetabS6-22" value="ID da consulta" style="ellipse;whiteSpace=wrap;html=1;align=center;fontStyle=4;fontFamily=Helvetica;fontSize=11;fontColor=default;" parent="1" vertex="1">
          <mxGeometry x="180" y="775.75" width="100" height="40" as="geometry" />
        </mxCell>
        <mxCell id="IPbYQr8HQ4EOVnetabS6-25" style="edgeStyle=none;shape=connector;rounded=0;orthogonalLoop=1;jettySize=auto;html=1;entryX=0.75;entryY=1;entryDx=0;entryDy=0;labelBackgroundColor=default;strokeColor=default;fontFamily=Helvetica;fontSize=11;fontColor=default;endArrow=none;" parent="1" source="IPbYQr8HQ4EOVnetabS6-24" target="IPbYQr8HQ4EOVnetabS6-17" edge="1">
          <mxGeometry relative="1" as="geometry" />
        </mxCell>
        <mxCell id="IPbYQr8HQ4EOVnetabS6-24" value="número do paciente" style="ellipse;whiteSpace=wrap;html=1;align=center;fontFamily=Helvetica;fontSize=11;fontColor=default;" parent="1" vertex="1">
          <mxGeometry x="405" y="890" width="70" height="40" as="geometry" />
        </mxCell>
        <mxCell id="IPbYQr8HQ4EOVnetabS6-26" value="Prescrição" style="whiteSpace=wrap;html=1;align=center;fontFamily=Helvetica;fontSize=11;fontColor=default;" parent="1" vertex="1">
          <mxGeometry x="625" y="810" width="100" height="40" as="geometry" />
        </mxCell>
        <mxCell id="IPbYQr8HQ4EOVnetabS6-28" style="edgeStyle=none;shape=connector;rounded=0;orthogonalLoop=1;jettySize=auto;html=1;entryX=0.5;entryY=1;entryDx=0;entryDy=0;labelBackgroundColor=default;strokeColor=default;fontFamily=Helvetica;fontSize=11;fontColor=default;endArrow=none;" parent="1" source="IPbYQr8HQ4EOVnetabS6-27" target="IPbYQr8HQ4EOVnetabS6-26" edge="1">
          <mxGeometry relative="1" as="geometry" />
        </mxCell>
        <mxCell id="IPbYQr8HQ4EOVnetabS6-27" value="número único de prescrição" style="ellipse;whiteSpace=wrap;html=1;align=center;fontStyle=4;fontFamily=Helvetica;fontSize=11;fontColor=default;" parent="1" vertex="1">
          <mxGeometry x="642" y="893" width="100" height="40" as="geometry" />
        </mxCell>
        <mxCell id="IPbYQr8HQ4EOVnetabS6-30" style="edgeStyle=none;shape=connector;rounded=0;orthogonalLoop=1;jettySize=auto;html=1;entryX=0.25;entryY=1;entryDx=0;entryDy=0;labelBackgroundColor=default;strokeColor=default;fontFamily=Helvetica;fontSize=11;fontColor=default;endArrow=none;" parent="1" source="IPbYQr8HQ4EOVnetabS6-29" target="IPbYQr8HQ4EOVnetabS6-26" edge="1">
          <mxGeometry relative="1" as="geometry" />
        </mxCell>
        <mxCell id="IPbYQr8HQ4EOVnetabS6-29" value="data" style="ellipse;whiteSpace=wrap;html=1;align=center;fontFamily=Helvetica;fontSize=11;fontColor=default;" parent="1" vertex="1">
          <mxGeometry x="582.5" y="903" width="55" height="30" as="geometry" />
        </mxCell>
        <mxCell id="IPbYQr8HQ4EOVnetabS6-39" style="edgeStyle=none;shape=connector;rounded=0;orthogonalLoop=1;jettySize=auto;html=1;entryX=1;entryY=1;entryDx=0;entryDy=0;labelBackgroundColor=default;strokeColor=default;fontFamily=Helvetica;fontSize=11;fontColor=default;endArrow=none;" parent="1" source="IPbYQr8HQ4EOVnetabS6-38" target="IPbYQr8HQ4EOVnetabS6-26" edge="1">
          <mxGeometry relative="1" as="geometry" />
        </mxCell>
        <mxCell id="IPbYQr8HQ4EOVnetabS6-38" value="ID da consulta" style="ellipse;whiteSpace=wrap;html=1;align=center;fontFamily=Helvetica;fontSize=11;fontColor=default;" parent="1" vertex="1">
          <mxGeometry x="740" y="875.5" width="60" height="40" as="geometry" />
        </mxCell>
        <mxCell id="IPbYQr8HQ4EOVnetabS6-41" value="Cirurgia" style="whiteSpace=wrap;html=1;align=center;fontFamily=Helvetica;fontSize=11;fontColor=default;" parent="1" vertex="1">
          <mxGeometry x="720" y="399" width="100" height="51" as="geometry" />
        </mxCell>
        <mxCell id="IPbYQr8HQ4EOVnetabS6-43" style="edgeStyle=none;shape=connector;rounded=0;orthogonalLoop=1;jettySize=auto;html=1;entryX=0.5;entryY=0;entryDx=0;entryDy=0;labelBackgroundColor=default;strokeColor=default;fontFamily=Helvetica;fontSize=11;fontColor=default;endArrow=none;" parent="1" source="IPbYQr8HQ4EOVnetabS6-42" target="IPbYQr8HQ4EOVnetabS6-41" edge="1">
          <mxGeometry relative="1" as="geometry" />
        </mxCell>
        <mxCell id="IPbYQr8HQ4EOVnetabS6-42" value="Data e hora" style="ellipse;whiteSpace=wrap;html=1;align=center;fontFamily=Helvetica;fontSize=11;fontColor=default;" parent="1" vertex="1">
          <mxGeometry x="735" y="319" width="70" height="40" as="geometry" />
        </mxCell>
        <mxCell id="IPbYQr8HQ4EOVnetabS6-47" style="edgeStyle=none;shape=connector;rounded=0;orthogonalLoop=1;jettySize=auto;html=1;entryX=0.5;entryY=1;entryDx=0;entryDy=0;labelBackgroundColor=default;strokeColor=default;fontFamily=Helvetica;fontSize=11;fontColor=default;endArrow=none;" parent="1" source="IPbYQr8HQ4EOVnetabS6-46" target="IPbYQr8HQ4EOVnetabS6-41" edge="1">
          <mxGeometry relative="1" as="geometry" />
        </mxCell>
        <mxCell id="IPbYQr8HQ4EOVnetabS6-46" value="ID da cirurgia" style="ellipse;whiteSpace=wrap;html=1;align=center;fontStyle=4;fontFamily=Helvetica;fontSize=11;fontColor=default;" parent="1" vertex="1">
          <mxGeometry x="720" y="481" width="100" height="40" as="geometry" />
        </mxCell>
        <mxCell id="IPbYQr8HQ4EOVnetabS6-49" style="edgeStyle=none;shape=connector;rounded=0;orthogonalLoop=1;jettySize=auto;html=1;entryX=1;entryY=1;entryDx=0;entryDy=0;labelBackgroundColor=default;strokeColor=default;fontFamily=Helvetica;fontSize=11;fontColor=default;endArrow=none;" parent="1" source="IPbYQr8HQ4EOVnetabS6-48" target="IPbYQr8HQ4EOVnetabS6-41" edge="1">
          <mxGeometry relative="1" as="geometry" />
        </mxCell>
        <mxCell id="IPbYQr8HQ4EOVnetabS6-48" value="número do paciente" style="ellipse;whiteSpace=wrap;html=1;align=center;fontFamily=Helvetica;fontSize=11;fontColor=default;" parent="1" vertex="1">
          <mxGeometry x="845" y="455" width="80" height="40" as="geometry" />
        </mxCell>
        <mxCell id="IPbYQr8HQ4EOVnetabS6-51" style="edgeStyle=none;shape=connector;rounded=0;orthogonalLoop=1;jettySize=auto;html=1;entryX=1;entryY=0.5;entryDx=0;entryDy=0;labelBackgroundColor=default;strokeColor=default;fontFamily=Helvetica;fontSize=11;fontColor=default;endArrow=none;" parent="1" source="IPbYQr8HQ4EOVnetabS6-50" target="IPbYQr8HQ4EOVnetabS6-41" edge="1">
          <mxGeometry relative="1" as="geometry" />
        </mxCell>
        <mxCell id="IPbYQr8HQ4EOVnetabS6-50" value="procedimento cirúrgico" style="ellipse;whiteSpace=wrap;html=1;align=center;fontFamily=Helvetica;fontSize=11;fontColor=default;" parent="1" vertex="1">
          <mxGeometry x="857.5" y="399" width="80" height="40" as="geometry" />
        </mxCell>
        <mxCell id="IPbYQr8HQ4EOVnetabS6-52" value="tem" style="shape=rhombus;perimeter=rhombusPerimeter;whiteSpace=wrap;html=1;align=center;fontFamily=Helvetica;fontSize=11;fontColor=default;" parent="1" vertex="1">
          <mxGeometry x="120" y="400" width="60" height="40" as="geometry" />
        </mxCell>
        <mxCell id="IPbYQr8HQ4EOVnetabS6-53" value="" style="shape=link;html=1;rounded=0;labelBackgroundColor=default;strokeColor=default;fontFamily=Helvetica;fontSize=11;fontColor=default;endArrow=none;entryX=0;entryY=0.5;entryDx=0;entryDy=0;exitX=1;exitY=0.5;exitDx=0;exitDy=0;" parent="1" source="IPbYQr8HQ4EOVnetabS6-52" target="FidjuhQmROle2Qf061Uu-1" edge="1">
          <mxGeometry relative="1" as="geometry">
            <mxPoint x="105" y="519.66" as="sourcePoint" />
            <mxPoint x="265" y="519.66" as="targetPoint" />
          </mxGeometry>
        </mxCell>
        <mxCell id="IPbYQr8HQ4EOVnetabS6-54" value="1" style="resizable=0;html=1;whiteSpace=wrap;align=right;verticalAlign=bottom;fontFamily=Helvetica;fontSize=11;fontColor=default;" parent="IPbYQr8HQ4EOVnetabS6-53" connectable="0" vertex="1">
          <mxGeometry x="1" relative="1" as="geometry">
            <mxPoint x="-4" y="-2" as="offset" />
          </mxGeometry>
        </mxCell>
        <mxCell id="IPbYQr8HQ4EOVnetabS6-55" value="" style="shape=link;html=1;rounded=0;labelBackgroundColor=default;strokeColor=default;fontFamily=Helvetica;fontSize=11;fontColor=default;endArrow=none;entryX=1;entryY=0.5;entryDx=0;entryDy=0;exitX=0;exitY=0.5;exitDx=0;exitDy=0;" parent="1" source="IPbYQr8HQ4EOVnetabS6-52" target="FidjuhQmROle2Qf061Uu-64" edge="1">
          <mxGeometry relative="1" as="geometry">
            <mxPoint x="29.999999999999545" y="420" as="sourcePoint" />
            <mxPoint x="180" y="570" as="targetPoint" />
          </mxGeometry>
        </mxCell>
        <mxCell id="IPbYQr8HQ4EOVnetabS6-56" value="1" style="resizable=0;html=1;whiteSpace=wrap;align=right;verticalAlign=bottom;fontFamily=Helvetica;fontSize=11;fontColor=default;" parent="IPbYQr8HQ4EOVnetabS6-55" connectable="0" vertex="1">
          <mxGeometry x="1" relative="1" as="geometry">
            <mxPoint x="12" y="-2" as="offset" />
          </mxGeometry>
        </mxCell>
        <mxCell id="IPbYQr8HQ4EOVnetabS6-58" value="tem" style="shape=rhombus;perimeter=rhombusPerimeter;whiteSpace=wrap;html=1;align=center;fontFamily=Helvetica;fontSize=11;fontColor=default;" parent="1" vertex="1">
          <mxGeometry x="-36" y="571" width="50" height="40" as="geometry" />
        </mxCell>
        <mxCell id="IPbYQr8HQ4EOVnetabS6-61" value="" style="shape=link;html=1;rounded=0;labelBackgroundColor=default;strokeColor=default;fontFamily=Helvetica;fontSize=11;fontColor=default;endArrow=none;entryX=0.5;entryY=1;entryDx=0;entryDy=0;exitX=0.5;exitY=0;exitDx=0;exitDy=0;" parent="1" source="IPbYQr8HQ4EOVnetabS6-58" target="FidjuhQmROle2Qf061Uu-64" edge="1">
          <mxGeometry relative="1" as="geometry">
            <mxPoint x="-95" y="670" as="sourcePoint" />
            <mxPoint x="65" y="670" as="targetPoint" />
          </mxGeometry>
        </mxCell>
        <mxCell id="IPbYQr8HQ4EOVnetabS6-62" value="N" style="resizable=0;html=1;whiteSpace=wrap;align=right;verticalAlign=bottom;fontFamily=Helvetica;fontSize=11;fontColor=default;" parent="IPbYQr8HQ4EOVnetabS6-61" connectable="0" vertex="1">
          <mxGeometry x="1" relative="1" as="geometry">
            <mxPoint x="-4" y="18" as="offset" />
          </mxGeometry>
        </mxCell>
        <mxCell id="IPbYQr8HQ4EOVnetabS6-63" value="tem" style="shape=rhombus;perimeter=rhombusPerimeter;whiteSpace=wrap;html=1;align=center;fontFamily=Helvetica;fontSize=11;fontColor=default;" parent="1" vertex="1">
          <mxGeometry x="359" y="577.5" width="50" height="45" as="geometry" />
        </mxCell>
        <mxCell id="IPbYQr8HQ4EOVnetabS6-64" value="" style="shape=link;html=1;rounded=0;labelBackgroundColor=default;strokeColor=default;fontFamily=Helvetica;fontSize=11;fontColor=default;endArrow=none;entryX=0;entryY=0.5;entryDx=0;entryDy=0;exitX=1;exitY=0.5;exitDx=0;exitDy=0;" parent="1" source="IPbYQr8HQ4EOVnetabS6-63" target="IPbYQr8HQ4EOVnetabS6-1" edge="1">
          <mxGeometry relative="1" as="geometry">
            <mxPoint x="390" y="600" as="sourcePoint" />
            <mxPoint x="300" y="610" as="targetPoint" />
          </mxGeometry>
        </mxCell>
        <mxCell id="IPbYQr8HQ4EOVnetabS6-65" value="1" style="resizable=0;html=1;whiteSpace=wrap;align=right;verticalAlign=bottom;fontFamily=Helvetica;fontSize=11;fontColor=default;" parent="IPbYQr8HQ4EOVnetabS6-64" connectable="0" vertex="1">
          <mxGeometry x="1" relative="1" as="geometry">
            <mxPoint x="-3" y="-2" as="offset" />
          </mxGeometry>
        </mxCell>
        <mxCell id="IPbYQr8HQ4EOVnetabS6-66" value="" style="shape=link;html=1;rounded=0;labelBackgroundColor=default;strokeColor=default;fontFamily=Helvetica;fontSize=11;fontColor=default;endArrow=none;entryX=0.75;entryY=0;entryDx=0;entryDy=0;exitX=0.5;exitY=1;exitDx=0;exitDy=0;" parent="1" source="IPbYQr8HQ4EOVnetabS6-63" target="IPbYQr8HQ4EOVnetabS6-17" edge="1">
          <mxGeometry relative="1" as="geometry">
            <mxPoint x="140" y="610" as="sourcePoint" />
            <mxPoint x="300" y="610" as="targetPoint" />
          </mxGeometry>
        </mxCell>
        <mxCell id="IPbYQr8HQ4EOVnetabS6-67" value="N" style="resizable=0;html=1;whiteSpace=wrap;align=right;verticalAlign=bottom;fontFamily=Helvetica;fontSize=11;fontColor=default;" parent="IPbYQr8HQ4EOVnetabS6-66" connectable="0" vertex="1">
          <mxGeometry x="1" relative="1" as="geometry">
            <mxPoint x="-5" y="-1" as="offset" />
          </mxGeometry>
        </mxCell>
        <mxCell id="IPbYQr8HQ4EOVnetabS6-68" value="tem" style="shape=rhombus;perimeter=rhombusPerimeter;whiteSpace=wrap;html=1;align=center;fontFamily=Helvetica;fontSize=11;fontColor=default;" parent="1" vertex="1">
          <mxGeometry x="299" y="577.5" width="50" height="45" as="geometry" />
        </mxCell>
        <mxCell id="IPbYQr8HQ4EOVnetabS6-69" value="" style="shape=link;html=1;rounded=0;labelBackgroundColor=default;strokeColor=default;fontFamily=Helvetica;fontSize=11;fontColor=default;endArrow=none;entryX=0.75;entryY=1;entryDx=0;entryDy=0;exitX=0.5;exitY=0;exitDx=0;exitDy=0;" parent="1" source="IPbYQr8HQ4EOVnetabS6-68" target="FidjuhQmROle2Qf061Uu-1" edge="1">
          <mxGeometry relative="1" as="geometry">
            <mxPoint x="140" y="610" as="sourcePoint" />
            <mxPoint x="300" y="610" as="targetPoint" />
          </mxGeometry>
        </mxCell>
        <mxCell id="IPbYQr8HQ4EOVnetabS6-70" value="1" style="resizable=0;html=1;whiteSpace=wrap;align=right;verticalAlign=bottom;fontFamily=Helvetica;fontSize=11;fontColor=default;" parent="IPbYQr8HQ4EOVnetabS6-69" connectable="0" vertex="1">
          <mxGeometry x="1" relative="1" as="geometry">
            <mxPoint x="-5" y="19" as="offset" />
          </mxGeometry>
        </mxCell>
        <mxCell id="IPbYQr8HQ4EOVnetabS6-71" value="" style="shape=link;html=1;rounded=0;labelBackgroundColor=default;strokeColor=default;fontFamily=Helvetica;fontSize=11;fontColor=default;endArrow=none;entryX=0.5;entryY=0;entryDx=0;entryDy=0;exitX=0.5;exitY=1;exitDx=0;exitDy=0;" parent="1" source="IPbYQr8HQ4EOVnetabS6-58" target="FidjuhQmROle2Qf061Uu-37" edge="1">
          <mxGeometry relative="1" as="geometry">
            <mxPoint x="135" y="610" as="sourcePoint" />
            <mxPoint x="295" y="610" as="targetPoint" />
          </mxGeometry>
        </mxCell>
        <mxCell id="IPbYQr8HQ4EOVnetabS6-72" value="1" style="resizable=0;html=1;whiteSpace=wrap;align=right;verticalAlign=bottom;fontFamily=Helvetica;fontSize=11;fontColor=default;" parent="IPbYQr8HQ4EOVnetabS6-71" connectable="0" vertex="1">
          <mxGeometry x="1" relative="1" as="geometry">
            <mxPoint x="-6" y="-3" as="offset" />
          </mxGeometry>
        </mxCell>
        <mxCell id="IPbYQr8HQ4EOVnetabS6-73" value="" style="shape=link;html=1;rounded=0;labelBackgroundColor=default;strokeColor=default;fontFamily=Helvetica;fontSize=11;fontColor=default;endArrow=none;exitX=0.5;exitY=1;exitDx=0;exitDy=0;" parent="1" source="IPbYQr8HQ4EOVnetabS6-68" edge="1">
          <mxGeometry relative="1" as="geometry">
            <mxPoint x="140" y="610" as="sourcePoint" />
            <mxPoint x="324" y="810" as="targetPoint" />
          </mxGeometry>
        </mxCell>
        <mxCell id="IPbYQr8HQ4EOVnetabS6-74" value="N" style="resizable=0;html=1;whiteSpace=wrap;align=right;verticalAlign=bottom;fontFamily=Helvetica;fontSize=11;fontColor=default;" parent="IPbYQr8HQ4EOVnetabS6-73" connectable="0" vertex="1">
          <mxGeometry x="1" relative="1" as="geometry">
            <mxPoint x="-5" y="-2" as="offset" />
          </mxGeometry>
        </mxCell>
        <mxCell id="IPbYQr8HQ4EOVnetabS6-87" style="edgeStyle=none;shape=connector;rounded=0;orthogonalLoop=1;jettySize=auto;html=1;exitX=1;exitY=0;exitDx=0;exitDy=0;labelBackgroundColor=default;strokeColor=default;fontFamily=Helvetica;fontSize=11;fontColor=default;endArrow=none;" parent="1" edge="1">
          <mxGeometry relative="1" as="geometry">
            <mxPoint x="162.74873734151288" y="324.3933982822085" as="sourcePoint" />
            <mxPoint x="163.17905112159315" y="324.58108229451295" as="targetPoint" />
          </mxGeometry>
        </mxCell>
        <mxCell id="IPbYQr8HQ4EOVnetabS6-88" value="" style="endArrow=none;html=1;rounded=0;labelBackgroundColor=default;strokeColor=default;fontFamily=Helvetica;fontSize=11;fontColor=default;shape=connector;entryX=1;entryY=0.5;entryDx=0;entryDy=0;" parent="1" target="FidjuhQmROle2Qf061Uu-1" edge="1">
          <mxGeometry relative="1" as="geometry">
            <mxPoint x="480" y="420" as="sourcePoint" />
            <mxPoint x="570" y="490" as="targetPoint" />
          </mxGeometry>
        </mxCell>
        <mxCell id="IPbYQr8HQ4EOVnetabS6-89" value="1" style="resizable=0;html=1;whiteSpace=wrap;align=right;verticalAlign=bottom;fontFamily=Helvetica;fontSize=11;fontColor=default;" parent="IPbYQr8HQ4EOVnetabS6-88" connectable="0" vertex="1">
          <mxGeometry x="1" relative="1" as="geometry">
            <mxPoint x="14" y="-1" as="offset" />
          </mxGeometry>
        </mxCell>
        <mxCell id="IPbYQr8HQ4EOVnetabS6-90" value="tem" style="shape=rhombus;perimeter=rhombusPerimeter;whiteSpace=wrap;html=1;align=center;fontFamily=Helvetica;fontSize=11;fontColor=default;" parent="1" vertex="1">
          <mxGeometry x="478" y="405" width="50" height="30" as="geometry" />
        </mxCell>
        <mxCell id="IPbYQr8HQ4EOVnetabS6-91" value="" style="endArrow=none;html=1;rounded=0;labelBackgroundColor=default;strokeColor=default;fontFamily=Helvetica;fontSize=11;fontColor=default;shape=connector;exitX=1;exitY=0.5;exitDx=0;exitDy=0;" parent="1" source="IPbYQr8HQ4EOVnetabS6-90" edge="1">
          <mxGeometry relative="1" as="geometry">
            <mxPoint x="410" y="490" as="sourcePoint" />
            <mxPoint x="720" y="420" as="targetPoint" />
          </mxGeometry>
        </mxCell>
        <mxCell id="IPbYQr8HQ4EOVnetabS6-92" value="N" style="resizable=0;html=1;whiteSpace=wrap;align=right;verticalAlign=bottom;fontFamily=Helvetica;fontSize=11;fontColor=default;" parent="IPbYQr8HQ4EOVnetabS6-91" connectable="0" vertex="1">
          <mxGeometry x="1" relative="1" as="geometry">
            <mxPoint x="-2" as="offset" />
          </mxGeometry>
        </mxCell>
        <mxCell id="IPbYQr8HQ4EOVnetabS6-93" value="realiza" style="shape=rhombus;perimeter=rhombusPerimeter;whiteSpace=wrap;html=1;align=center;fontFamily=Helvetica;fontSize=11;fontColor=default;" parent="1" vertex="1">
          <mxGeometry x="510.5" y="428" width="49.5" height="42" as="geometry" />
        </mxCell>
        <mxCell id="IPbYQr8HQ4EOVnetabS6-98" value="" style="shape=link;html=1;rounded=0;labelBackgroundColor=default;strokeColor=default;fontFamily=Helvetica;fontSize=11;fontColor=default;endArrow=none;exitX=0.5;exitY=1;exitDx=0;exitDy=0;" parent="1" source="IPbYQr8HQ4EOVnetabS6-93" edge="1">
          <mxGeometry relative="1" as="geometry">
            <mxPoint x="410" y="490" as="sourcePoint" />
            <mxPoint x="535" y="580" as="targetPoint" />
          </mxGeometry>
        </mxCell>
        <mxCell id="IPbYQr8HQ4EOVnetabS6-99" value="1" style="resizable=0;html=1;whiteSpace=wrap;align=right;verticalAlign=bottom;fontFamily=Helvetica;fontSize=11;fontColor=default;" parent="IPbYQr8HQ4EOVnetabS6-98" connectable="0" vertex="1">
          <mxGeometry x="1" relative="1" as="geometry">
            <mxPoint x="-5" y="-2" as="offset" />
          </mxGeometry>
        </mxCell>
        <mxCell id="IPbYQr8HQ4EOVnetabS6-103" value="" style="endArrow=none;html=1;rounded=0;labelBackgroundColor=default;strokeColor=default;fontFamily=Helvetica;fontSize=11;fontColor=default;shape=connector;exitX=1;exitY=0;exitDx=0;exitDy=0;entryX=0;entryY=0.75;entryDx=0;entryDy=0;" parent="1" target="IPbYQr8HQ4EOVnetabS6-41" edge="1">
          <mxGeometry relative="1" as="geometry">
            <mxPoint x="547.6250000000005" y="438.5000000000002" as="sourcePoint" />
            <mxPoint x="720" y="437.25" as="targetPoint" />
          </mxGeometry>
        </mxCell>
        <mxCell id="IPbYQr8HQ4EOVnetabS6-104" value="N" style="resizable=0;html=1;whiteSpace=wrap;align=right;verticalAlign=bottom;fontFamily=Helvetica;fontSize=11;fontColor=default;" parent="IPbYQr8HQ4EOVnetabS6-103" connectable="0" vertex="1">
          <mxGeometry x="1" relative="1" as="geometry">
            <mxPoint x="-4" y="16" as="offset" />
          </mxGeometry>
        </mxCell>
        <mxCell id="IPbYQr8HQ4EOVnetabS6-108" style="edgeStyle=none;shape=connector;rounded=0;orthogonalLoop=1;jettySize=auto;html=1;entryX=0.25;entryY=0;entryDx=0;entryDy=0;labelBackgroundColor=default;strokeColor=default;fontFamily=Helvetica;fontSize=11;fontColor=default;endArrow=none;" parent="1" source="IPbYQr8HQ4EOVnetabS6-107" target="IPbYQr8HQ4EOVnetabS6-41" edge="1">
          <mxGeometry relative="1" as="geometry" />
        </mxCell>
        <mxCell id="IPbYQr8HQ4EOVnetabS6-107" value="número de identificação profissional" style="ellipse;whiteSpace=wrap;html=1;align=center;fontFamily=Helvetica;fontSize=11;fontColor=default;" parent="1" vertex="1">
          <mxGeometry x="604.5" y="305" width="110" height="50" as="geometry" />
        </mxCell>
        <mxCell id="7Ej-ImtT3RFLnniLx-of-1" value="número único de ficha clínica" style="ellipse;whiteSpace=wrap;html=1;align=center;fontStyle=4;" parent="1" vertex="1">
          <mxGeometry x="30" y="460" width="100" height="40" as="geometry" />
        </mxCell>
        <mxCell id="7Ej-ImtT3RFLnniLx-of-3" value="" style="endArrow=none;html=1;rounded=0;entryX=0.75;entryY=1;entryDx=0;entryDy=0;exitX=0;exitY=0;exitDx=0;exitDy=0;" parent="1" source="7Ej-ImtT3RFLnniLx-of-1" target="FidjuhQmROle2Qf061Uu-64" edge="1">
          <mxGeometry relative="1" as="geometry">
            <mxPoint x="90" y="480" as="sourcePoint" />
            <mxPoint x="250" y="480" as="targetPoint" />
          </mxGeometry>
        </mxCell>
        <mxCell id="YAYYjtM5hfzbb1nTp-d6-3" style="rounded=0;orthogonalLoop=1;jettySize=auto;html=1;entryX=0;entryY=0.5;entryDx=0;entryDy=0;endArrow=none;endFill=0;exitX=1;exitY=0.5;exitDx=0;exitDy=0;" edge="1" parent="1" source="YAYYjtM5hfzbb1nTp-d6-1" target="IPbYQr8HQ4EOVnetabS6-26">
          <mxGeometry relative="1" as="geometry">
            <mxPoint x="520" y="787" as="sourcePoint" />
          </mxGeometry>
        </mxCell>
        <mxCell id="YAYYjtM5hfzbb1nTp-d6-1" value="tem" style="shape=rhombus;perimeter=rhombusPerimeter;whiteSpace=wrap;html=1;align=center;" vertex="1" parent="1">
          <mxGeometry x="478" y="812" width="62" height="38" as="geometry" />
        </mxCell>
        <mxCell id="YAYYjtM5hfzbb1nTp-d6-4" value="1" style="text;html=1;align=center;verticalAlign=middle;resizable=0;points=[];autosize=1;strokeColor=none;fillColor=none;fontSize=11;fontFamily=Helvetica;fontColor=default;" vertex="1" parent="1">
          <mxGeometry x="405" y="808" width="30" height="30" as="geometry" />
        </mxCell>
        <mxCell id="YAYYjtM5hfzbb1nTp-d6-5" value="1" style="text;html=1;align=center;verticalAlign=middle;resizable=0;points=[];autosize=1;strokeColor=none;fillColor=none;fontSize=11;fontFamily=Helvetica;fontColor=default;" vertex="1" parent="1">
          <mxGeometry x="595" y="825.25" width="30" height="30" as="geometry" />
        </mxCell>
        <mxCell id="YAYYjtM5hfzbb1nTp-d6-10" style="edgeStyle=none;shape=connector;rounded=0;orthogonalLoop=1;jettySize=auto;html=1;entryX=1;entryY=0.5;entryDx=0;entryDy=0;labelBackgroundColor=default;strokeColor=default;fontFamily=Helvetica;fontSize=11;fontColor=default;endArrow=none;endFill=0;" edge="1" parent="1" source="YAYYjtM5hfzbb1nTp-d6-9" target="IPbYQr8HQ4EOVnetabS6-26">
          <mxGeometry relative="1" as="geometry" />
        </mxCell>
        <mxCell id="YAYYjtM5hfzbb1nTp-d6-9" value="&lt;font style=&quot;font-size: 12px;&quot;&gt;Número de identificação profissional&amp;nbsp;&lt;/font&gt;" style="ellipse;whiteSpace=wrap;html=1;align=center;fontFamily=Helvetica;fontSize=11;fontColor=default;" vertex="1" parent="1">
          <mxGeometry x="780" y="810" width="145" height="58" as="geometry" />
        </mxCell>
      </root>
    </mxGraphModel>
  </diagram>
  <diagram id="IlfqTCEnk4HAypn4xsHr" name="Página-2">
    <mxGraphModel dx="954" dy="636" grid="1" gridSize="10" guides="1" tooltips="1" connect="1" arrows="1" fold="1" page="1" pageScale="1" pageWidth="827" pageHeight="1169" math="0" shadow="0">
      <root>
        <mxCell id="0" />
        <mxCell id="1" parent="0" />
      </root>
    </mxGraphModel>
  </diagram>
</mxfile>
